<?xml version="1.0" encoding="utf-8"?>
<!-- Generator: Adobe Illustrator 18.1.0, SVG Export Plug-In . SVG Version: 6.00 Build 0)  -->
<svg version="1.1" id="Layer_1" xmlns="http://www.w3.org/2000/svg" xmlns:xlink="http://www.w3.org/1999/xlink" x="0px" y="0px"
	 viewBox="33.4 792 545.8 612" enable-background="new 33.4 792 545.8 612" xml:space="preserve">
<g id="layer1" transform="translate(-233,-352.36218)">
	<path id="path2998" fill="#28332C" d="M553,1708l12.6,18.9l6.3-14.7l6.3,8.4v35.8c25.2-9.5,25.2-79.9,30.5-116.2
		c5.5-38.1-1.1-110.9,97.3-178.2c-10.6-28.2-14.3-59.1-3.2-95.7c33.3,4,64.5,12.6,75.7,64.7l-36.3,10c13.3,27.5,20.3,55.9,15.8,86.2
		l-32.6-8.4l-7.4,40l-22.1-8.4l-10.5,40l-23.1-8.4l31.5,25.2l10.5-33.6l29.4,6.3l8.4-42.6l31.5,17.4c0.3-23.9,8.3-69.4-10.5-100.9
		l31.5,6.3c4.8-26.4-2.8-46.9-9.5-67.8l26.8,11.6c-0.5-30-35.8-67.9-73.6-69.9c-24.2-1.3-67.8-30.1-64.7-62
		c2.3-23.8,20.9-50.9,51.5-59.4c-52.6,43.6-11.6,80.4,6.3,87.8c5.3-13.7,21-82.6,0-155.6c-48.4,27.3-107.3,77.8-111.5,176.7
		l-69.4,46.3l-4.2,111.5l128.3-71.5l8.4,8.4l-21,4.2l-52.6,46.3l-18.9-6.3l-33.6,58.9l-4.2,143l25.2,18.9l-38.9,18.9l-38.9-18.9
		l25.2-18.9l-4.2-143l-33.6-58.9l-18.9,6.3l-52.6-46.3l-21-4.2l8.4-8.4l128.3,71.5l-4.2-111.5l-69.4-46.3
		c-4.2-98.8-63.1-149.3-111.5-176.7c-21,73.1-5.3,142,0,155.6c17.9-7.4,58.9-44.2,6.3-87.8c30.7,8.5,49.2,35.7,51.5,59.4
		c3.1,32-40.5,60.7-64.7,62c-37.8,2-73.1,40-73.6,69.9l26.8-11.6c-6.6,21-14.2,41.4-9.5,67.8l31.5-6.3
		c-18.8,31.5-10.8,77-10.5,100.9l31.5-17.4l8.4,42.6l29.4-6.3l10.5,33.6l31.5-25.2l-23.1,8.4l-10.5-40l-22.1,8.4l-7.4-40l-32.6,8.4
		c-4.6-30.3,2.5-58.7,15.8-86.2l-36.3-10c11.2-52,42.4-60.7,75.7-64.7c11.2,36.6,7.5,67.5-3.2,95.7c98.3,67.3,91.7,140.1,97.3,178.2
		c5.3,36.3,5.3,106.7,30.5,116.2v-35.8l6.3-8.4l6.3,14.7l12.6-18.9l13.7,25.2L553,1708z"/>
	<path id="path3028" fill="#28332C" d="M647.6,1594.4l-18.9-12.6c8.9-5.2,16.4-10.1,23.1-14.7
		C651.1,1575.7,651.5,1583.7,647.6,1594.4z"/>
	<path id="path3030" fill="#28332C" d="M681.3,1535.5c-0.5,13.1-1.1,25.9-2.1,37.9c-9.4-2.2-18.6-4.5-25.2-8.4
		C663.8,1555.5,672.5,1545.5,681.3,1535.5z"/>
	<path id="path3032" fill="#28332C" d="M710.7,1541.8c0-16.1-2.5-28.9-6.3-40c-6.4,10.9-13.4,21.7-22.1,32.6L710.7,1541.8z"/>
	<path id="path3034" fill="#28332C" d="M714.9,1445.1c23.2,15.3,33.2,40.2,35.8,67.3c-14.7-5.4-29.4-11.1-44.2-12.6
		C712.5,1485.4,714.4,1466.1,714.9,1445.1z"/>
	<path id="path3036" fill="#28332C" d="M712.8,1390.4c1,17.1,2.2,34.4,2.1,50.5c23-9.7,35.6-11.6,52.6-16.8
		C754.8,1401.4,735,1393.6,712.8,1390.4z"/>
	<path id="path3028-4" fill="#28332C" d="M431,1594.4l18.9-12.6c-8.9-5.2-16.4-10.1-23.1-14.7C427.5,1575.7,427.1,1583.7,431,1594.4
		z"/>
	<path id="path3030-0" fill="#28332C" d="M397.3,1535.5c0.5,13.1,1.1,25.9,2.1,37.9c9.4-2.2,18.6-4.5,25.2-8.4
		C414.8,1555.5,406.1,1545.5,397.3,1535.5z"/>
	<path id="path3032-9" fill="#28332C" d="M367.9,1541.8c0-16.1,2.5-28.9,6.3-40c6.4,10.9,13.4,21.7,22.1,32.6L367.9,1541.8z"/>
	<path id="path3034-4" fill="#28332C" d="M363.7,1445.1c-23.2,15.3-33.2,40.2-35.8,67.3c14.7-5.4,29.4-11.1,44.2-12.6
		C366.1,1485.4,364.2,1466.1,363.7,1445.1z"/>
	<path id="path3036-8" fill="#28332C" d="M365.8,1390.4c-1,17.1-2.2,34.4-2.1,50.5c-23-9.7-35.6-11.6-52.6-16.8
		C323.8,1401.4,343.6,1393.6,365.8,1390.4z"/>
</g>
</svg>
