<?xml version="1.0" encoding="utf-8"?>
<!-- Generator: Adobe Illustrator 18.1.0, SVG Export Plug-In . SVG Version: 6.00 Build 0)  -->
<svg version="1.1" id="Layer_1" xmlns="http://www.w3.org/2000/svg" xmlns:xlink="http://www.w3.org/1999/xlink" x="0px" y="0px"
	 viewBox="0 90 612 612" enable-background="new 0 90 612 612" xml:space="preserve">
<path fill="#454545" d="M306,462.3c76.5,0,139.4-25.5,144.5-59.5c-11.9-32.3-23.8-66.3-35.7-100.3c-8.5,23.8-54.4,40.8-108.8,40.8
	s-100.3-17-108.8-40.8c-11.9,34-23.8,68-35.7,100.3C166.6,436.8,229.5,462.3,306,462.3L306,462.3z M306,248.1
	c35.7,0,69.7-11.9,78.2-28.9c-13.6-37.4-25.5-69.7-32.3-90.1c-5.1-13.6-27.2-20.4-45.9-20.4s-42.5,6.8-45.9,20.4
	c-6.8,20.4-18.7,52.7-32.3,90.1C236.3,237.9,270.3,248.1,306,248.1L306,248.1z M586.5,492.9l-119-47.6l13.6,39.1
	c0,40.8-79.9,73.1-173.4,73.1s-175.1-32.3-175.1-73.1l13.6-39.1l-119,47.6c-34,13.6-35.7,39.1-3.4,56.1l224.4,120.7
	c32.3,17,83.3,17,115.6,0L588.2,549C620.5,532,618.8,506.5,586.5,492.9L586.5,492.9z"/>
</svg>
