<?xml version="1.0" encoding="utf-8"?>
<!-- Generator: Adobe Illustrator 18.1.0, SVG Export Plug-In . SVG Version: 6.00 Build 0)  -->
<svg version="1.1" id="Layer_1" xmlns="http://www.w3.org/2000/svg" xmlns:xlink="http://www.w3.org/1999/xlink" x="0px" y="0px"
	 viewBox="-2 90 616 612" enable-background="new -2 90 616 612" xml:space="preserve">
<g id="layer1" transform="translate(-233,-352.36218)">
	<path id="path2998" fill="#28332C" d="M558.7,1005.5l12.6,18.9l6.3-14.7l6.3,8.4v35.8c25.2-9.5,25.2-79.9,30.5-116.2
		c5.5-38.1-1.1-110.9,97.3-178.2c-10.6-28.2-14.3-59.1-3.2-95.7c33.3,4,64.5,12.6,75.7,64.7l-36.3,10c13.3,27.5,20.3,55.9,15.8,86.2
		l-32.6-8.4l-7.4,40l-22.1-8.4l-10.5,40l-23.1-8.4l31.5,25.2l10.5-33.6l29.4,6.3l8.4-42.6l31.5,17.4c0.3-23.9,8.3-69.4-10.5-100.9
		l31.5,6.3c4.8-26.4-2.8-46.9-9.5-67.8l26.8,11.6c-0.5-30-35.8-67.9-73.6-69.9c-24.2-1.3-67.8-30.1-64.7-62
		c2.3-23.8,20.9-50.9,51.5-59.4c-52.6,43.6-11.6,80.4,6.3,87.8c5.3-13.7,21-82.6,0-155.6c-48.4,27.3-107.3,77.8-111.5,176.7
		l-69.4,46.3l-4.2,111.5l128.3-71.5l8.4,8.4l-21,4.2l-52.6,46.3l-18.9-6.3l-33.6,58.9l-4.2,143l25.2,18.9L545,997.1l-38.9-18.9
		l25.2-18.9l-4.2-143l-33.6-58.9l-18.9,6.3L422,717.4l-21-4.2l8.4-8.4l128.3,71.5l-4.2-111.5L464,618.5
		c-4.2-98.8-63.1-149.3-111.5-176.7c-21,73.1-5.3,142,0,155.6c17.9-7.4,58.9-44.2,6.3-87.8c30.7,8.5,49.2,35.7,51.5,59.4
		c3.1,32-40.5,60.7-64.7,62c-37.8,2-73.1,40-73.6,69.9l26.8-11.6c-6.6,21-14.2,41.4-9.5,67.8L321,751c-18.8,31.5-10.8,77-10.5,100.9
		l31.5-17.4l8.4,42.6l29.4-6.3l10.5,33.6l31.5-25.2l-23.1,8.4l-10.5-40l-22.1,8.4l-7.4-40l-32.6,8.4c-4.6-30.3,2.5-58.7,15.8-86.2
		l-36.3-10c11.2-52,42.4-60.7,75.7-64.7c11.2,36.6,7.5,67.5-3.2,95.7c98.3,67.3,91.7,140.1,97.3,178.2
		c5.3,36.3,5.3,106.7,30.5,116.2v-35.8l6.3-8.4l6.3,14.7l12.6-18.9l13.7,25.2L558.7,1005.5z"/>
	<path id="path3028" fill="#28332C" d="M653.3,891.9l-18.9-12.6c8.9-5.2,16.4-10.1,23.1-14.7C656.8,873.2,657.2,881.2,653.3,891.9z"
		/>
	<path id="path3030" fill="#28332C" d="M687,833c-0.5,13.1-1.1,25.9-2.1,37.9c-9.4-2.2-18.6-4.5-25.2-8.4
		C669.5,853,678.2,843,687,833z"/>
	<path id="path3032" fill="#28332C" d="M716.4,839.3c0-16.1-2.5-28.9-6.3-40c-6.4,10.9-13.4,21.7-22.1,32.6L716.4,839.3z"/>
	<path id="path3034" fill="#28332C" d="M720.6,742.6c23.2,15.3,33.2,40.2,35.8,67.3c-14.7-5.4-29.4-11.1-44.2-12.6
		C718.2,782.9,720.1,763.6,720.6,742.6z"/>
	<path id="path3036" fill="#28332C" d="M718.5,687.9c1,17.1,2.2,34.4,2.1,50.5c23-9.7,35.6-11.6,52.6-16.8
		C760.5,698.9,740.7,691.1,718.5,687.9z"/>
	<path id="path3028-4" fill="#28332C" d="M436.7,891.9l18.9-12.6c-8.9-5.2-16.4-10.1-23.1-14.7C433.2,873.2,432.8,881.2,436.7,891.9
		z"/>
	<path id="path3030-0" fill="#28332C" d="M403,833c0.5,13.1,1.1,25.9,2.1,37.9c9.4-2.2,18.6-4.5,25.2-8.4
		C420.5,853,411.8,843,403,833z"/>
	<path id="path3032-9" fill="#28332C" d="M373.6,839.3c0-16.1,2.5-28.9,6.3-40c6.4,10.9,13.4,21.7,22.1,32.6L373.6,839.3z"/>
	<path id="path3034-4" fill="#28332C" d="M369.4,742.6c-23.2,15.3-33.2,40.2-35.8,67.3c14.7-5.4,29.4-11.1,44.2-12.6
		C371.8,782.9,369.9,763.6,369.4,742.6z"/>
	<path id="path3036-8" fill="#28332C" d="M371.5,687.9c-1,17.1-2.2,34.4-2.1,50.5c-23-9.7-35.6-11.6-52.6-16.8
		C329.5,698.9,349.3,691.1,371.5,687.9z"/>
</g>
</svg>
