<?xml version="1.0" encoding="utf-8"?>
<!-- Generator: Adobe Illustrator 17.1.0, SVG Export Plug-In . SVG Version: 6.00 Build 0)  -->
<!DOCTYPE svg PUBLIC "-//W3C//DTD SVG 1.1//EN" "http://www.w3.org/Graphics/SVG/1.1/DTD/svg11.dtd">
<svg version="1.1" id="Layer_1" xmlns="http://www.w3.org/2000/svg" xmlns:xlink="http://www.w3.org/1999/xlink" x="0px" y="0px"
	 viewBox="0 0 36 36" enable-background="new 0 0 36 36" xml:space="preserve">
<path fill="#454545" d="M18,21.9c4.5,0,8.2-1.5,8.5-3.5c-0.7-1.9-1.4-3.9-2.1-5.9c-0.5,1.4-3.2,2.4-6.4,2.4s-5.9-1-6.4-2.4
	c-0.7,2-1.4,4-2.1,5.9C9.8,20.4,13.5,21.9,18,21.9L18,21.9z M18,9.3c2.1,0,4.1-0.7,4.6-1.7c-0.8-2.2-1.5-4.1-1.9-5.3
	c-0.3-0.8-1.6-1.2-2.7-1.2s-2.5,0.4-2.7,1.2c-0.4,1.2-1.1,3.1-1.9,5.3C13.9,8.7,15.9,9.3,18,9.3L18,9.3z M34.5,23.7l-7-2.8l0.8,2.3
	c0,2.4-4.7,4.3-10.2,4.3S7.8,25.6,7.8,23.2l0.8-2.3l-7,2.8c-2,0.8-2.1,2.3-0.2,3.3l13.2,7.1c1.9,1,4.9,1,6.8,0L34.6,27
	C36.5,26,36.4,24.5,34.5,23.7L34.5,23.7z"/>
</svg>
